<?xml version="1.0" standalone="no"?>
<!DOCTYPE svg PUBLIC "-//W3C//DTD SVG 20010904//EN"
 "http://www.w3.org/TR/2001/REC-SVG-20010904/DTD/svg10.dtd">
<svg version="1.0" xmlns="http://www.w3.org/2000/svg"
 width="270.000000pt" height="270.000000pt" viewBox="0 0 270.000000 270.000000"
 preserveAspectRatio="xMidYMid meet">
<metadata>
Created by potrace 1.11, written by Peter Selinger 2001-2013
</metadata>
<g transform="translate(0.000000,270.000000) scale(0.100000,-0.100000)"
fill="#000000" stroke="none">
<path d="M1317 1973 c1 -395 2 -721 2 -725 1 -5 15 -8 31 -8 l30 0 0 725 0
725 -32 0 -33 0 2 -717z"/>
<path d="M805 2211 c-3 -2 -5 -315 -5 -695 l0 -691 547 1 548 1 3 691 2 692
-29 0 c-16 0 -31 -6 -33 -12 -2 -7 -3 -304 -2 -660 l1 -648 -489 0 -488 0 0
663 0 663 -25 0 c-14 0 -28 -2 -30 -5z"/>
<path d="M417 1743 c-16 -4 -17 -42 -15 -666 l3 -662 945 0 945 0 0 659 0 660
-27 1 c-15 1 -29 -3 -31 -9 -2 -6 -3 -289 -3 -628 1 -404 -2 -619 -9 -621 -5
-1 -404 -2 -885 -2 l-875 0 -1 629 c-1 669 1 649 -47 639z"/>
<path d="M19 1271 c-14 -5 -15 -76 -15 -636 l1 -630 1343 0 c1190 0 1342 1
1343 15 3 47 3 1209 0 1227 -2 17 -9 21 -30 20 l-26 -2 -5 -600 -5 -600 -1265
1 c-696 1 -1272 2 -1280 3 -13 1 -15 74 -14 600 0 537 -1 600 -16 604 -8 2
-22 1 -31 -2z"/>
</g>
</svg>
